<?xml version="1.0" encoding="utf-8"?>
<!-- Generator: Adobe Illustrator 26.2.1, SVG Export Plug-In . SVG Version: 6.00 Build 0)  -->
<svg version="1.1" id="Layer_1" xmlns="http://www.w3.org/2000/svg" xmlns:xlink="http://www.w3.org/1999/xlink" x="0px" y="0px"
	 width="500px" height="530px" viewBox="0 0 500 530" style="enable-background:new 0 0 500 530;" xml:space="preserve">
<style type="text/css">
	.st0{fill:#ECECEC;}
	.st1{fill:#009B6C;}
	.st2{opacity:0.1;fill:#009B6C;}
	.st3{fill:#627EEA;}
	.st4{opacity:0.5;fill:#627EEA;}
	.st5{fill:#F0B90B;}
	.st6{opacity:0.5;fill:#F0B90B;}
	.st7{fill:#D9FFF0;}
	.st8{fill:#0052FF;}
	.st9{fill:#121212;}
	.st10{fill:#213147;}
	.st11{opacity:0.5;fill:#213147;}
	.st12{fill:#2B2129;}
	.st13{opacity:0.5;fill:#2B2129;}
	.st14{fill:#070707;}
	.st15{fill:#FFFFFF;}
	.st16{fill:#E24D4D;}
	.st17{fill-rule:evenodd;clip-rule:evenodd;fill:#FFFFFF;}
	.st18{fill:#CBA68D;}
	.st19{fill:#BB9168;}
	.st20{fill:#E5D1B8;}
	.st21{fill:#CBA58C;}
	.st22{fill:#D7AF94;}
	.st23{fill:#C2956D;}
	.st24{fill:#12AAFF;}
	.st25{fill:#9DCCED;}
	.st26{fill:#FFFFFF;fill-opacity:0.602;}
	.st27{fill:#FFFFFF;fill-opacity:0.2;}
</style>
<g>
	
		<ellipse transform="matrix(0.8777 -0.4791 0.4791 0.8777 -142.4902 198.0343)" class="st0" cx="316.8" cy="378.2" rx="18.6" ry="18.6"/>
	<circle class="st0" cx="200.3" cy="149.8" r="18.6"/>
	
		<ellipse transform="matrix(0.1555 -0.9878 0.9878 0.1555 -152.7018 347.1092)" class="st0" cx="126.7" cy="262.9" rx="7.9" ry="7.9"/>
	<circle class="st0" cx="440.2" cy="264" r="7.9"/>
	
		<rect x="174.2" y="221.1" transform="matrix(2.314789e-02 -0.9997 0.9997 2.314789e-02 -94.0171 433.8445)" class="st0" width="1.5" height="87.9"/>
	
		<rect x="282.6" y="256.9" transform="matrix(0.8592 -0.5117 0.5117 0.8592 -124.9266 190.3866)" class="st0" width="1.5" height="130.6"/>
	
		<rect x="225.1" y="150" transform="matrix(0.9033 -0.429 0.429 0.9033 -63.7968 116.1916)" class="st0" width="1.5" height="99.1"/>
	<rect x="270.9" y="263.3" class="st0" width="169.3" height="1.5"/>
</g>
<g>
	
		<rect x="160.7" y="179.2" transform="matrix(0.3585 -0.9335 0.9335 0.3585 -106.5059 296.1176)" class="st1" width="3" height="92.8"/>
	
		<rect x="160.3" y="299.2" transform="matrix(0.8571 -0.5152 0.5152 0.8571 -128.0708 139.723)" class="st1" width="54.9" height="3"/>
	
		<rect x="314.8" y="277.5" transform="matrix(0.4315 -0.9021 0.9021 0.4315 -97.0134 459.8119)" class="st1" width="3" height="58.8"/>
	
		<rect x="293.2" y="216.9" transform="matrix(0.9369 -0.3497 0.3497 0.9369 -54.9611 132.4752)" class="st1" width="92.4" height="3"/>
	<rect x="260.2" y="188.8" transform="matrix(0.532 -0.8467 0.8467 0.532 -26.7214 332.2581)" class="st1" width="54" height="3"/>
	<g>
		
			<rect x="195.5" y="320.3" transform="matrix(0.3818 -0.9242 0.9242 0.3818 -157.7594 407.8724)" class="st1" width="61" height="3"/>
		<g>
			<circle class="st1" cx="207.5" cy="366.8" r="25.8"/>
			<circle class="st2" cx="207.5" cy="366.8" r="25.8"/>
		</g>
	</g>
	
		<rect x="235.3" y="122.1" transform="matrix(0.9799 -0.1997 0.1997 0.9799 -28.8349 50.6839)" class="st1" width="3" height="92.4"/>
	<path class="st1" d="M273.7,74.4c-5.3,33.8-37.2,57-71,51.7s-57-37.2-51.7-71c5.3-33.8,37.2-57,71-51.7S279,40.6,273.7,74.4z
		 M154,55.6c-5.1,32.2,17,62.5,49.2,67.5c32.2,5.1,62.5-17,67.5-49.2c5.1-32.2-17-62.5-49.2-67.5C189.4,1.3,159.1,23.4,154,55.6z"/>
	<g>
		
			<ellipse transform="matrix(0.7071 -0.7071 0.7071 0.7071 16.4181 169.1202)" class="st3" cx="212.4" cy="64.7" rx="53.6" ry="53.6"/>
		
			<ellipse transform="matrix(0.7071 -0.7071 0.7071 0.7071 16.4181 169.1202)" class="st4" cx="212.4" cy="64.7" rx="53.6" ry="53.6"/>
	</g>
	
		<rect x="248.4" y="309.3" transform="matrix(0.9998 -1.992179e-02 1.992179e-02 0.9998 -7.0329 5.05)" class="st1" width="3" height="92.4"/>
	<path class="st1" d="M196.8,441.2c11.3-32.3,46.8-49.4,79.2-38s49.4,46.8,38,79.2c-11.3,32.3-46.8,49.4-79.2,38
		S185.4,473.5,196.8,441.2z M311.1,481.3c10.8-30.7-5.5-64.5-36.2-75.3c-30.7-10.8-64.5,5.5-75.3,36.2
		c-10.8,30.7,5.5,64.5,36.2,75.3C266.6,528.3,300.3,512,311.1,481.3z"/>
	<g>
		
			<ellipse transform="matrix(0.7071 -0.7071 0.7071 0.7071 -251.7238 315.8262)" class="st5" cx="255.4" cy="461.8" rx="53.6" ry="53.6"/>
		
			<ellipse transform="matrix(0.7071 -0.7071 0.7071 0.7071 -251.7238 315.8262)" class="st6" cx="255.4" cy="461.8" rx="53.6" ry="53.6"/>
	</g>
	<g>
		<circle class="st7" cx="250" cy="261.8" r="57.8"/>
		<path class="st1" d="M250,321.1c-32.7,0-59.3-26.6-59.3-59.3s26.6-59.3,59.3-59.3c32.7,0,59.3,26.6,59.3,59.3
			S282.7,321.1,250,321.1z M250,205.5c-31.1,0-56.3,25.3-56.3,56.3s25.3,56.3,56.3,56.3c31.1,0,56.3-25.3,56.3-56.3
			S281.1,205.5,250,205.5z"/>
	</g>
	
		<ellipse transform="matrix(0.2414 -0.9704 0.9704 0.2414 -132.8907 200.9623)" class="st8" cx="62.1" cy="185.5" rx="53.6" ry="53.6"/>
	<path class="st1" d="M62.1,247.6C27.9,247.6,0,219.7,0,185.5s27.9-62.1,62.1-62.1c34.2,0,62.1,27.9,62.1,62.1
		S96.3,247.6,62.1,247.6z M62.1,126.4C29.5,126.4,3,152.9,3,185.5c0,32.6,26.5,59.1,59.1,59.1c32.6,0,59.1-26.5,59.1-59.1
		C121.2,152.9,94.7,126.4,62.1,126.4z"/>
	<path class="st1" d="M437.9,240.3c-34.2,0-62.1-27.9-62.1-62.1s27.9-62.1,62.1-62.1c34.2,0,62.1,27.9,62.1,62.1
		S472.1,240.3,437.9,240.3z M437.9,119.1c-32.6,0-59.1,26.5-59.1,59.1c0,32.6,26.5,59.1,59.1,59.1s59.1-26.5,59.1-59.1
		C497,145.6,470.5,119.1,437.9,119.1z"/>
	<path class="st1" d="M394.3,413.3c-34.2,0-62.1-27.9-62.1-62.1c0-34.2,27.9-62.1,62.1-62.1s62.1,27.9,62.1,62.1
		C456.4,385.4,428.5,413.3,394.3,413.3z M394.3,292.1c-32.6,0-59.1,26.5-59.1,59.1s26.5,59.1,59.1,59.1s59.1-26.5,59.1-59.1
		S426.8,292.1,394.3,292.1z"/>
	<path class="st1" d="M112.3,408.1c-34.2,0-62.1-27.9-62.1-62.1c0-34.2,27.9-62.1,62.1-62.1c34.2,0,62.1,27.9,62.1,62.1
		C174.4,380.3,146.5,408.1,112.3,408.1z M112.3,287c-32.6,0-59.1,26.5-59.1,59.1c0,32.6,26.5,59.1,59.1,59.1
		c32.6,0,59.1-26.5,59.1-59.1C171.4,313.5,144.9,287,112.3,287z"/>
	
		<ellipse transform="matrix(0.223 -0.9748 0.9748 0.223 -35.9632 657.1922)" class="st9" cx="394.3" cy="351.2" rx="53.6" ry="53.6"/>
	<g>
		
			<ellipse transform="matrix(0.7071 -0.7071 0.7071 0.7071 2.2676 361.8297)" class="st10" cx="437.9" cy="178.2" rx="53.6" ry="53.6"/>
		
			<ellipse transform="matrix(0.7071 -0.7071 0.7071 0.7071 2.2676 361.8297)" class="st11" cx="437.9" cy="178.2" rx="53.6" ry="53.6"/>
	</g>
	<g>
		
			<ellipse transform="matrix(0.9303 -0.3667 0.3667 0.9303 -119.0845 65.2978)" class="st12" cx="112.3" cy="346" rx="53.6" ry="53.6"/>
		
			<ellipse transform="matrix(0.9303 -0.3667 0.3667 0.9303 -119.0845 65.2978)" class="st13" cx="112.3" cy="346" rx="53.6" ry="53.6"/>
	</g>
	<g>
		
			<ellipse transform="matrix(0.2265 -0.974 0.974 0.2265 94.8963 421.1271)" class="st1" cx="312.6" cy="150.8" rx="25.8" ry="25.8"/>
		
			<ellipse transform="matrix(0.2265 -0.974 0.974 0.2265 94.8963 421.1271)" class="st2" cx="312.6" cy="150.8" rx="25.8" ry="25.8"/>
	</g>
</g>
<g>
	<path class="st1" d="M291.5,273.5c0,17.4-17.9,31.6-40,31.6c-22.1,0-40-14.1-40-31.6c0-6.9,2.8-13.2,7.5-18.4
		c0.5-0.6,0.6-1.5,0-2.1c-2.5-3-4-6.8-4-11.1c0-9.3,7.5-16.9,16.5-16.9c8.9,0.1,16.2,7.6,16.2,16.9c0,0,0,0.1,0,0.1
		c1.2-0.1,2.5-0.1,3.8-0.1c1.3,0,2.5,0,3.8,0.1c0,0,0-0.1,0-0.1c0-9.3,7.2-16.8,16.2-16.9c9-0.1,16.5,7.5,16.5,16.9
		c0,4.2-1.5,8.1-4,11.1c-0.5,0.6-0.5,1.5,0,2.1C288.7,260.3,291.5,266.6,291.5,273.5z"/>
	<path class="st14" d="M265.7,290.5c-4.1,2.5-9,4.2-14.2,4.2c-5.1,0-10-1.7-14.1-4.2c-8.5-5-14-13.2-13.1-16.3
		c0-0.1,0.1-0.2,0.1-0.3c1.4-2.8,8.9,1.2,27.1,1.2c18.2,0,25.7-3.9,27.1-1.2c0,0.1,0.1,0.2,0.1,0.3
		C279.7,277.3,274.2,285.5,265.7,290.5z"/>
	<ellipse class="st15" cx="232.1" cy="242.7" rx="10" ry="10.4"/>
	<ellipse class="st15" cx="270.9" cy="242.7" rx="10" ry="10.4"/>
	<ellipse class="st14" cx="247.7" cy="265" rx="2.2" ry="3.1"/>
	<ellipse class="st14" cx="255.4" cy="265" rx="2.2" ry="3.1"/>
	<path class="st16" d="M265.7,290.5c-4.1,2.5-9,4.2-14.2,4.2c-5.1,0-10-1.7-14.1-4.2c2.5-2,7.9-3.4,14.1-3.4
		C257.8,287.1,263.2,288.5,265.7,290.5z"/>
	<path class="st15" d="M278.8,274.2c-3.1,4-14.1,6.9-27.2,6.9c-13.1,0-24.1-2.9-27.2-6.9c0-0.1,0.1-0.2,0.1-0.3
		c1.4-2.8,8.9,1.2,27.1,1.2c18.2,0,25.7-3.9,27.1-1.2C278.7,274,278.7,274.1,278.8,274.2z"/>
	<ellipse class="st14" cx="232.1" cy="242.7" rx="4.5" ry="4.7"/>
	<ellipse class="st14" cx="270.9" cy="242.7" rx="4.5" ry="4.7"/>
</g>
<path class="st17" d="M62,225.5c22.1,0,40.1-17.9,40.1-40.1S84.2,145.4,62,145.4c-21,0-38.2,16.1-39.9,36.7h59.4v6.7H22.1
	C23.8,209.4,41,225.5,62,225.5z"/>
<g id="logoMark_00000034081593653380181850000008909024520088982675_">
	<a xlink:href="31.6811764705882" >
		<path id="logoMark__x3C_PathItem_x3E__00000039129455286795884960000003886904124401193860_" class="st18" d="M83.5,317.3
			c-1.1-0.1-2.3-0.1-3.3,0.7c-0.5,0.4-1.1,1.1-0.9,1.9c0,0.1,0.1,0.2,0.1,0.3c0,0,0,0.1,0.1,0.1c0.1,0.1,0.1,0.1,0.1,0.2l0.1,0.1
			c0.1,0.1,0.1,0.1,0.1,0.1l0.1,0.1c0.1,0.1,0.1,0.1,0.2,0.1c0,0,0.1,0,0.1,0.1c0.1,0,0.1,0.1,0.2,0.1s0.1,0,0.1,0.1
			c0.1,0,0.1,0.1,0.2,0.1s0.1,0,0.1,0c0.1,0,0.1,0,0.2,0c0.1,0,0.1,0,0.2,0s0.1,0,0.2,0c0.1,0,0.1,0,0.1,0c1.2,0,2.4,0,3.5,0
			c0.3,0,0.7,0,1,0c0.1,0,0.2,0,0.3,0c0,0.1,0,0.1,0,0.2c0,0.1,0,0.2-0.1,0.2c0,0.1-0.1,0.2-0.1,0.2c0,0.1,0,0.1-0.1,0.2
			c0,0.1-0.1,0.1-0.1,0.2c0,0.1-0.1,0.1-0.1,0.2c0,0.1-0.1,0.1-0.1,0.2c0,0.1-0.1,0.1-0.1,0.2c0,0.1-0.1,0.1-0.1,0.2
			c0,0.1-0.1,0.1-0.1,0.2c0,0.1-0.1,0.1-0.1,0.2c0,0.1-0.1,0.1-0.1,0.2c-0.1,0.1-0.1,0.1-0.1,0.2c-0.1,0.1-0.1,0.1-0.1,0.2
			c-0.1,0.1-0.1,0.1-0.1,0.2c-0.1,0.1-0.1,0.1-0.1,0.1c-0.1,0.1-0.1,0.1-0.1,0.2c-0.1,0.1-0.1,0.1-0.1,0.1c-0.1,0.1-0.1,0.1-0.1,0.1
			c-0.1,0.1-0.1,0.1-0.1,0.1c-0.1,0.1-0.1,0.1-0.2,0.1s-0.1,0.1-0.1,0.1c-0.1,0.1-0.1,0.1-0.2,0.1c-0.1,0.1-0.1,0.1-0.1,0.1
			c-0.1,0.1-0.1,0.1-0.2,0.1c-0.1,0-0.1,0.1-0.1,0.1c-0.1,0.1-0.1,0.1-0.2,0.1c-0.1,0-0.1,0.1-0.1,0.1c-0.1,0.1-0.2,0.1-0.2,0.1
			c-0.1,0-0.1,0.1-0.1,0.1c-0.1,0.1-0.2,0.1-0.3,0.1c-0.2,0.1-0.3,0.1-0.5,0.2c-0.1,0-0.1,0-0.2,0.1c-0.1,0-0.2,0.1-0.3,0.1
			c-0.1,0-0.2,0-0.2,0.1c-0.1,0-0.2,0-0.3,0.1c-0.1,0-0.2,0-0.3,0c-0.1,0-0.2,0-0.2,0c-0.1,0-0.2,0-0.3,0c-0.1,0-0.1,0-0.2,0
			s-0.2,0-0.3,0c-0.1,0-0.1,0-0.2,0c-0.1,0-0.2,0-0.3,0c-0.1,0-0.1,0-0.2,0c-0.1,0-0.2,0-0.3-0.1c-0.1,0-0.1,0-0.2,0
			c-2.6-2.1-3.5-5-2.4-7.9c1.2-3,3.7-4.5,7.2-4.2c0.8,0.3,1.6,0.6,2.3,1l0,0c0.1,0.1,0.3,0.2,0.4,0.2l0,0c0.1,0.1,0.2,0.2,0.3,0.2
			l0,0c0.1,0.1,0.2,0.2,0.3,0.3l0,0c0.1,0.1,0.2,0.2,0.3,0.3l0,0c0.1,0.1,0.2,0.2,0.3,0.3c0,0,0,0,0.1,0.1c0.1,0.1,0.2,0.2,0.3,0.3
			l0.1,0.1c0.1,0.1,0.2,0.2,0.2,0.3c0,0.1,0.1,0.1,0.1,0.1c0.1,0.1,0.1,0.2,0.2,0.3c0.1,0.1,0.1,0.1,0.1,0.2
			c0.1,0.1,0.1,0.2,0.1,0.2c0.1,0.1,0.1,0.2,0.1,0.3c0,0.1,0.1,0.1,0.1,0.1h-4.8C83.9,317.3,83.7,317.3,83.5,317.3"/>
	</a>
	<path id="logoMark__x3C_CompoundPathItem_x3E__00000000905623766117902880000011324718797664112298_" class="st12" d="M80.7,325.8
		c-0.1,0-0.1,0-0.1,0h-0.1h-0.1h-0.1c-0.1,0-0.2,0-0.3,0l-1.4-0.1l-0.1-0.1c-2.7-2.2-3.7-5.3-2.5-8.3c1.2-3.2,3.9-4.7,7.6-4.5h0.1
		c1,0.3,1.7,0.6,2.4,1c0.1,0.1,0.3,0.2,0.4,0.2c0.1,0.1,0.3,0.2,0.4,0.3s0.2,0.2,0.4,0.3c0.1,0.1,0.2,0.2,0.3,0.3
		c0.1,0.1,0.2,0.2,0.3,0.3c0.1,0.1,0.2,0.2,0.3,0.3l0.1,0.1c0.1,0.1,0.2,0.2,0.2,0.3l0.1,0.1c0.1,0.1,0.2,0.2,0.2,0.3
		c0.1,0.1,0.1,0.1,0.1,0.2l-0.3,0.2l0.3-0.2c0.1,0.1,0.1,0.1,0.1,0.2s0.1,0.2,0.2,0.3l0.2,0.5h-5.3c-0.2,0-0.4,0-0.6,0l0,0
		c-1.1-0.1-2.2-0.1-3.1,0.6c-0.7,0.6-0.9,1.1-0.8,1.6c0,0.1,0.1,0.1,0.1,0.2c0.1,0.1,0.1,0.1,0.1,0.2c0.1,0.1,0.1,0.1,0.1,0.1
		c0.1,0.1,0.1,0.1,0.2,0.1l0.1,0.1c0.1,0,0.1,0.1,0.1,0.1v0.3l0.1-0.3c0.1,0,0.1,0.1,0.2,0.1h0.1c0.1,0,0.1,0,0.2,0H81H81
		c1.2,0,2.5,0,3.6,0h1.7l-0.1,0.5l-0.3,0.1l0.3,0.1l-0.1,0.3l-0.3,0.1l0.3,0.1l-0.1,0.3h-0.3l0.3,0.1l-0.1,0.3h-0.3l0.3,0.1
		l-0.1,0.3l-0.3-0.1l0.3,0.1l-0.2,0.3l-0.3-0.1l0.3,0.2l-0.1,0.1c0,0.1-0.1,0.1-0.1,0.1l-0.3-0.1l0.3,0.2l-0.1,0.2
		c0,0.1-0.1,0.1-0.1,0.1l-0.3-0.1l0.3,0.2l-0.1,0.1c-0.1,0.1-0.1,0.1-0.1,0.1l-0.3-0.1l0.3,0.2l-0.1,0.1c-0.1,0.1-0.1,0.1-0.1,0.1
		l-0.3-0.2l0.2,0.2l-0.1,0.1c-0.1,0.1-0.1,0.1-0.1,0.1l-0.2-0.2l0.2,0.2l-0.1,0.1c-0.1,0-0.1,0.1-0.1,0.1l-0.3-0.2l0.2,0.3l-0.1,0.1
		c-0.1,0.1-0.1,0.1-0.1,0.1l-0.3-0.2l0.2,0.3l-0.1,0.1c-0.1,0.1-0.1,0.1-0.2,0.1l-0.2-0.2l0.2,0.3l-0.1,0.1
		c-0.1,0.1-0.1,0.1-0.2,0.1l-0.2-0.3l0.2,0.3l-0.1,0.1c-0.1,0.1-0.2,0.1-0.4,0.2c-0.2,0.1-0.3,0.1-0.5,0.2h-0.1l-0.1-0.3v0.3
		c-0.1,0-0.2,0.1-0.3,0.1c-0.1,0-0.1,0-0.2,0h-0.2c-0.1,0-0.1,0-0.2,0c-0.1,0-0.2,0-0.2,0L80.7,325.8
		C80.7,325.8,80.7,325.8,80.7,325.8z M80.5,325.1L80.5,325.1c0.1,0,0.2,0,0.3,0H81c0.1,0,0.1,0,0.2,0s0.1,0,0.2,0l0.3-0.1
		c0.1,0,0.2-0.1,0.3-0.1l0.2-0.1c0.2-0.1,0.3-0.1,0.5-0.1c0.1-0.1,0.2-0.1,0.3-0.1l0.1-0.1c0.1-0.1,0.2-0.1,0.2-0.1l0.2-0.1
		c0.1,0,0.1-0.1,0.1-0.1l1.1-0.9l0.6-1.1l0.3-1.2h-1c-1.1,0-2.4,0-3.5,0h-0.1c-0.1,0-0.1,0-0.1,0l-0.1-0.4v0.3c-0.1,0-0.1,0-0.1,0
		c-0.1,0-0.2,0-0.2-0.1c-0.1,0-0.1,0-0.2,0c-0.1,0-0.2-0.1-0.2-0.1s-0.1,0-0.1-0.1c-0.1,0-0.1-0.1-0.2-0.1c-0.1,0-0.1-0.1-0.1-0.1
		c0,0-0.1,0-0.1-0.1c-0.1-0.1-0.1-0.1-0.1-0.1c-0.1-0.1-0.1-0.1-0.2-0.2c-0.1-0.1-0.1-0.1-0.1-0.1c-0.1-0.1-0.1-0.1-0.1-0.2
		c0-0.1-0.1-0.1-0.1-0.1C79,320.2,79,320,79,320c-0.3-1.1,0.6-2,1-2.3c1.1-0.9,2.4-0.9,3.5-0.8v0.3v-0.3l0,0c0.2,0,0.4,0,0.5,0h4.3
		c0-0.1-0.1-0.1-0.1-0.1l-0.1-0.2c-0.1-0.1-0.1-0.2-0.2-0.2l-0.1-0.1c-0.1-0.1-0.1-0.2-0.2-0.3l0.2-0.3l-0.3,0.2
		c-0.1-0.1-0.2-0.2-0.2-0.3c-0.1-0.1-0.2-0.2-0.3-0.3c-0.1-0.1-0.2-0.2-0.3-0.3c-0.1-0.1-0.2-0.2-0.3-0.3c-0.1-0.1-0.2-0.2-0.3-0.2
		c-0.1-0.1-0.2-0.2-0.4-0.2c-0.6-0.3-1.3-0.6-2.3-1c-3.4-0.2-5.8,1.2-6.9,4.1c-1.1,2.7-0.3,5.5,2.2,7.5l1,0.1c0.2,0,0.2,0,0.3,0h0.1
		H80.5z"/>
	<a xlink:href="85.5286274509804" >
		<path id="logoMark__x3C_PathItem_x3E__00000152944038477092415880000017230330216349235106_" class="st12" d="M84.2,317.6
			c0.1,0,0.1,0.1,0.1,0.1s0.1,0.1,0.1,0.1c0.1,0,0.1,0.1,0.1,0.1c0.1,0,0.1,0.1,0.1,0.1s0.1,0.1,0.1,0.1c0.1,0.1,0.1,0.1,0.1,0.1
			l0,0c0.3,0.3,0.5,0.6,0.8,0.9l0,0c0.1,0.1,0.1,0.2,0.1,0.2l0,0c0.1,0.1,0.1,0.2,0.1,0.2l0,0c0.1,0.1,0.1,0.2,0.1,0.2l0,0
			c0,0.1,0.1,0.2,0.1,0.2c0,0,0,0,0,0.1c0,0.1,0.1,0.2,0.1,0.2v0.1c0,0.1,0,0.1,0,0.2c0,0.1,0,0.1,0,0.1c0,0.1,0,0.1,0,0.2
			c0,0.1,0,0.1,0,0.1c-0.5,0-0.9,0-1.4,0c-0.3,0-0.6,0-1,0c-0.9,0-1.7,0-2.6,0c-0.9,0-1.4-0.3-1.7-0.9c-0.2-0.8,0.4-1.3,0.9-1.8
			c0.1-0.1,0.2-0.1,0.2-0.2l0.1-0.1c0.1-0.1,0.2-0.1,0.2-0.1l0,0c0.1-0.1,0.2-0.1,0.3-0.1H81c0.1-0.1,0.2-0.1,0.2-0.1c0,0,0,0,0.1,0
			c0.1,0,0.2-0.1,0.3-0.1h0.1c0.1,0,0.2,0,0.2-0.1h0.1c0.1,0,0.2,0,0.3,0h0.1c0.1,0,0.2,0,0.2,0h0.1c0.2,0,0.3,0,0.4,0l0,0
			c0.2,0,0.3,0,0.4,0c0.2,0,0.4,0,0.5,0c0.1,0,0.1,0.1,0.1,0.1C84.2,317.5,84.2,317.5,84.2,317.6z"/>
	</a>
	<path id="logoMark__x3C_CompoundPathItem_x3E__00000002343129560675547990000018369057538875220104_" class="st12" d="M81,321.1
		c-1,0-1.7-0.4-1.9-1.1c-0.3-1.1,0.6-1.8,1-2.1c0.1-0.1,0.2-0.2,0.3-0.2l0.1-0.1c0.1-0.1,0.2-0.1,0.3-0.2c0.1-0.1,0.2-0.1,0.3-0.1
		l0.1-0.1c0.1-0.1,0.2-0.1,0.3-0.1c0.1-0.1,0.2-0.1,0.3-0.1h0.1c0.1,0,0.2,0,0.3-0.1c0.2,0,0.2,0,0.3,0h0.1c0.1,0,0.2,0,0.3,0
		c0.2,0,0.3,0,0.5,0h0.4c0.2,0,0.4,0,0.5,0h0.1l0.2,0.1l-0.2,0.3l0.2-0.3l0.2,0.1l-0.2,0.3l0.2-0.3l0.2,0.1l-0.2,0.3l0.2-0.3
		l0.1,0.1l-0.2,0.3l0.2-0.2l0.1,0.1c0.3,0.3,0.6,0.6,0.8,1c0.1,0.1,0.1,0.2,0.1,0.2c0.1,0.1,0.1,0.2,0.1,0.3
		c0.1,0.1,0.1,0.2,0.1,0.3s0.1,0.2,0.1,0.3c0.1,0.1,0.1,0.2,0.1,0.3c0,0.1,0.1,0.2,0.1,0.3v0.1c0,0.1,0,0.1,0,0.2v0.1v0.3h-2.7
		c-0.9,0-1.7,0-2.6,0C81,321.1,81,321.1,81,321.1z M81.6,317.4l0.1,0.3c-0.1,0-0.2,0.1-0.2,0.1c-0.1,0.1-0.2,0.1-0.2,0.1
		c-0.2,0.1-0.2,0.1-0.3,0.1c-0.1,0.1-0.2,0.1-0.2,0.1l-0.1,0.1c-0.1,0.1-0.2,0.1-0.2,0.2c-0.6,0.5-0.9,1-0.8,1.4
		c0.1,0.3,0.3,0.7,1.3,0.7c0.9,0,1.7,0,2.6,0h2.3l0.1-0.1l-0.3,0.1c0-0.1,0-0.1,0-0.2c0-0.1-0.1-0.2-0.1-0.2c0-0.1-0.1-0.2-0.1-0.2
		c-0.1-0.1-0.1-0.2-0.1-0.2c-0.1-0.1-0.1-0.2-0.1-0.2c-0.1-0.1-0.1-0.2-0.1-0.2c-0.2-0.3-0.4-0.6-0.7-0.9l-0.6-0.5
		c-0.2,0-0.3,0-0.5,0H83c-0.2,0-0.3,0-0.4,0c-0.1,0-0.2,0-0.3,0l-0.1-0.3v0.3c-0.1,0-0.2,0-0.3,0c-0.1,0-0.2,0-0.3,0.1L81.6,317.4z"
		/>
	<a xlink:href="40.0454901960784" >
		<path id="logoMark__x3C_PathItem_x3E__00000022522718218699509120000001668317809071113130_" class="st19" d="M87,326.8
			c-1.9,0.1-3.9,0.1-5.7-0.3c-0.8-0.2-1.6-0.4-2.3-1c0.1,0,0.1,0,0.1,0c0.1,0,0.2,0,0.3,0c0.1,0,0.1,0,0.2,0c0.1,0,0.2,0,0.3,0
			c0.1,0,0.1,0,0.2,0c0.1,0,0.2,0,0.3,0c0.1,0,0.1,0,0.2,0h0.1c0.1,0,0.1,0,0.1,0c0.1,0,0.2,0,0.3,0c0.1,0,0.1,0,0.2,0
			c0.1,0,0.2,0,0.3-0.1c0.1,0,0.1,0,0.2,0s0.2-0.1,0.4-0.1c0.1,0,0.1,0,0.2-0.1c0.2-0.1,0.4-0.1,0.5-0.2c0.1-0.1,0.3-0.1,0.4-0.1
			c1.7-0.7,2.7-2.1,3-4.3l0,0v-0.1v-0.1l0,0c0-0.1,0-0.2,0-0.2c0-0.1,0-0.1,0-0.1c0-0.1,0-0.1,0-0.2c0-0.1,0-0.1,0-0.1
			c0-0.1,0-0.1-0.1-0.2c0-0.1,0-0.1-0.1-0.1c0-0.1,0-0.1-0.1-0.2c0-0.1,0-0.1-0.1-0.1c0-0.1-0.1-0.1-0.1-0.2c0-0.1-0.1-0.1-0.1-0.1
			c0-0.1-0.1-0.1-0.1-0.1c0-0.1-0.1-0.1-0.1-0.1c0-0.1-0.1-0.1-0.1-0.1c0-0.1-0.1-0.1-0.1-0.1c0-0.1-0.1-0.1-0.1-0.1
			c0-0.1-0.1-0.1-0.1-0.1c0-0.1-0.1-0.1-0.1-0.1c0-0.1-0.1-0.1-0.1-0.1c-0.1-0.1-0.1-0.1-0.1-0.1c0-0.1-0.1-0.1-0.1-0.1
			c-0.1-0.1-0.1-0.1-0.1-0.1c0-0.1-0.1-0.1-0.1-0.1c-0.1-0.1-0.1-0.1-0.1-0.1c-0.1-0.1-0.1-0.1-0.1-0.1c-0.1-0.1-0.1-0.1-0.1-0.1
			c-0.1,0-0.1-0.1-0.1-0.1c-0.1-0.1-0.1-0.1-0.1-0.1c-0.1,0-0.1-0.1-0.1-0.1c-0.1-0.1-0.1-0.1-0.1-0.1c-0.1,0-0.1-0.1-0.1-0.1l0,0
			h4.7c0.1,0.1,0.1,0.1,0.1,0.2c0.1,0.1,0.1,0.1,0.1,0.2c0.1,0.1,0.1,0.2,0.1,0.2c0.1,0.1,0.1,0.1,0.1,0.2c0.1,0.1,0.1,0.2,0.1,0.2
			c0,0.1,0.1,0.1,0.1,0.2c0,0.1,0.1,0.2,0.1,0.2c0,0.1,0.1,0.1,0.1,0.2c0,0.1,0.1,0.2,0.1,0.2c0,0.1,0,0.1,0.1,0.2
			c0,0.1,0,0.2,0.1,0.2c0,0.1,0,0.1,0,0.2c0,0.1,0,0.2,0,0.3c0,0.1,0,0.1,0,0.1c0,0.1,0,0.3,0,0.4c0,1.5,0,3.1,0,4.6
			c0,0.6,0,1.2,0,1.8C88.8,326.8,87.9,326.8,87,326.8z"/>
	</a>
	<path id="logoMark__x3C_CompoundPathItem_x3E__00000169520095221127301800000009031435907106096319_" class="st12" d="M85.1,327.2
		c-1.3,0-2.6-0.1-3.9-0.3c-0.8-0.2-1.7-0.4-2.4-1.1l-0.7-0.6l1,0.1l0.1,0.2v-0.1v-0.2l1.3,0.1l0.1,0.3v-0.3h0.1c0.1,0,0.2,0,0.3,0
		h0.2c0.1,0,0.2,0,0.3-0.1h0.2c0.1,0,0.2-0.1,0.3-0.1l0.2-0.1c0.2-0.1,0.3-0.1,0.5-0.2c0.1-0.1,0.2-0.1,0.3-0.1c1.6-0.6,2.5-2,2.8-4
		v-0.1v-0.1c0-0.1,0-0.2,0-0.2l0.3-0.1h-0.3c0-0.1,0-0.1,0-0.2l-0.2-0.8l-0.5-0.8l-1-1l-0.6-0.6h0.9h4.8l0.1,0.2
		c0.1,0.1,0.1,0.1,0.1,0.2l0.1,0.1c0.1,0.1,0.1,0.1,0.1,0.1c0.1,0.1,0.1,0.1,0.1,0.2l0.1,0.1c0,0.1,0.1,0.1,0.1,0.2
		c0,0.1,0.1,0.1,0.1,0.2l0.1,0.1c0,0.1,0.1,0.1,0.1,0.1c0,0.1,0.1,0.1,0.1,0.2l0.1,0.1c0,0.1,0,0.1,0.1,0.1c0,0.1,0,0.1,0.1,0.2
		l0.1,0.2c0,0.1,0,0.2,0,0.2l-0.3,0.2l0.3-0.1v0.1c0,0.1,0,0.2,0,0.3v0.1c0,0.1,0,0.3,0,0.4c0,1.5,0,3.1,0,4.5v2.1h-0.3
		c-0.9,0-1.8,0-2.7,0l0,0v-0.3v0.3C86.4,327.1,85.7,327.2,85.1,327.2z M87,326.5v0.3V326.5c0.8,0,1.6-0.1,2.5-0.1v-1.5
		c0-1.5,0-3.1,0-4.6c0-0.1,0-0.2,0-0.4l0.3-0.1h-0.3c0-0.1,0-0.2,0-0.3v-0.2c0-0.1,0-0.2,0-0.2l-0.1-0.2c0-0.1,0-0.2-0.1-0.2
		l-0.1-0.2c0-0.1-0.1-0.2-0.1-0.2l-0.1-0.2c-0.1-0.1-0.1-0.2-0.1-0.2c0-0.1-0.1-0.1-0.1-0.1L89,318c-0.1-0.1-0.1-0.2-0.1-0.2
		c0-0.1-0.1-0.1-0.1-0.1l-0.1-0.1c0,0,0,0,0-0.1h-3.7l0.7,0.9l0.4,0.8c0,0.1,0.1,0.1,0.1,0.2l0.1,0.1c0,0.1,0,0.1,0.1,0.2l0.1,0.2
		c0,0.1,0,0.1,0.1,0.2v0.2c0,0.1,0,0.1,0,0.2v0.1h0.1l-0.1,0.5v0.1v0.3h-0.1c-0.4,2.1-1.4,3.5-3.2,4.3c-0.1,0.1-0.3,0.1-0.4,0.2
		c-0.2,0.1-0.4,0.1-0.5,0.2h-0.1c-0.2,0.1-0.3,0.1-0.4,0.1h-0.2c-0.1,0-0.2,0.1-0.4,0.1H81c-0.1,0-0.2,0-0.4,0h-0.1h-0.2
		c0.3,0.1,0.6,0.2,1,0.3C83.2,326.6,85.1,326.5,87,326.5z"/>
	<a xlink:href="16.8117647058824" >
		<path id="logoMark__x3C_PathItem_x3E__00000102531534774305721800000001678618270636708010_" class="st20" d="M100.2,382.1
			c0,0.1-0.1,0.1-0.1,0.1c0,0.1-0.1,0.1-0.1,0.1h-3c-0.4,0-0.8-0.1-1.2-0.2l-0.1-0.1c-3.7-0.9-6-4-6-8.1c0.1-11.4,0.1-23,0.1-34.2
			c0-4.2,0-8.5,0-12.8l0,0V327c0-0.6,0-1.2,0-1.9c0-1.5,0-3,0-4.6c0-0.9-0.1-1.9-0.6-2.7c-0.1-0.1-0.2-0.3-0.2-0.4
			c-0.1-0.2-0.1-0.3-0.2-0.4c0-0.1-0.1-0.1-0.1-0.2c-0.1-0.1-0.1-0.2-0.2-0.3c-0.1-0.1-0.1-0.1-0.1-0.2c-0.1-0.1-0.1-0.2-0.2-0.2
			c-0.1-0.1-0.1-0.1-0.1-0.2c-0.1-0.1-0.1-0.2-0.2-0.2c-0.1-0.1-0.1-0.1-0.1-0.2c-0.1-0.1-0.1-0.1-0.2-0.2c-0.1-0.1-0.1-0.1-0.1-0.2
			c-0.1-0.1-0.1-0.1-0.2-0.2c-0.1-0.1-0.1-0.1-0.2-0.1c-0.1-0.1-0.1-0.1-0.2-0.2c-0.1-0.1-0.1-0.1-0.2-0.1c-0.1-0.1-0.1-0.1-0.2-0.2
			c-0.1-0.1-0.1-0.1-0.2-0.1c-0.1-0.1-0.1-0.1-0.2-0.1c-0.1-0.1-0.1-0.1-0.2-0.1c-0.1-0.1-0.1-0.1-0.2-0.1c-0.1-0.1-0.1-0.1-0.2-0.1
			c-0.1-0.1-0.1-0.1-0.2-0.1c-0.1-0.1-0.1-0.1-0.2-0.1s-0.1-0.1-0.2-0.1c-0.1-0.1-0.1-0.1-0.2-0.1c-0.1-0.1-0.1-0.1-0.2-0.1
			c-0.1-0.1-0.1-0.1-0.2-0.1c-0.1,0-0.1-0.1-0.2-0.1c-0.1-0.1-0.2-0.1-0.2-0.1c-0.1,0-0.1-0.1-0.2-0.1c-0.1-0.1-0.2-0.1-0.2-0.1l0,0
			c0.1,0,0.1,0,0.1,0c0.4,0,0.7-0.1,1.1-0.1c4.3,0,8.6,0,12.9,0c10.5,0,21.3,0,31.9-0.1h0.1c2,0,3.9,0.8,5.4,2.3
			c1.5,1.5,2.4,3.5,2.3,5.6c-0.1,11.5-0.1,23.2-0.1,34.6c0,4.3,0,8.5,0,12.8c-0.2,0-0.4,0-0.6,0c-0.4,0-0.9,0-1.3,0
			c-10.4,0-20.7,0-31.1,0h-4.1c-0.1,0-0.1,0-0.2,0c-0.1,0-0.3,0-0.4,0c-2.3-0.3-4.4,0.5-5.7,2.1c-0.1,0.1-0.1,0.1-0.1,0.1
			c-0.2,0.2-0.3,0.4-0.4,0.6c-0.1,0.2-0.2,0.4-0.3,0.6c-1.1,2.7-0.5,5.5,1.8,7.4l0.2,0.2l0,0l0,0l0,0l0,0l0.5,0.1h-0.3
			c0.6,0.6,1.4,1,2.5,1.1c0.2,0,0.5,0.1,0.8,0.1c0.1,0,0.2,0,0.3,0c0.2,0,0.3,0,0.5,0c0,0,0,0,0.1,0c0.5,0,1,0,1.4,0
			c0.1,0,0.1,0,0.1,0c0.3,0,0.6,0,1,0l0,0c-0.1,0.1-0.1,0.1-0.2,0.2c0,0,0,0-0.1,0c-0.1,0.1-0.1,0.1-0.2,0.1h-0.1
			c-0.1,0.1-0.2,0.1-0.2,0.1h-0.1c-0.1,0.1-0.2,0.1-0.2,0.1l0,0c-0.1,0.1-0.2,0.1-0.3,0.1c-0.1,0-0.1,0.1-0.1,0.1c0,0-0.1,0-0.1,0.1
			c-0.1,0-0.1,0.1-0.1,0.1l-0.1,0.1c-0.1,0-0.1,0.1-0.1,0.1l-0.1,0.1c-0.1,0-0.1,0.1-0.1,0.1l-0.1,0.1l-0.1,0.1l-0.1,0.1
			C100.2,382.1,100.2,382.1,100.2,382.1z"/>
	</a>
	<path id="logoMark__x3C_CompoundPathItem_x3E__00000059295134663470547530000016076541176620969602_" class="st12" d="M100.1,382.6
		h-3c-0.4,0-0.9-0.1-1.3-0.2l-0.1-0.1c-3.9-0.9-6.2-4.1-6.2-8.4c0.1-11.4,0.1-23,0.1-34.1c0-4.3,0-8.5,0-12.8v-1.9
		c0-1.5,0-3.1,0-4.6c0-0.8-0.1-1.8-0.5-2.6c-0.1-0.1-0.2-0.2-0.2-0.4l-0.1-0.1c-0.1-0.2-0.1-0.3-0.2-0.4l-0.1-0.1
		c-0.1-0.1-0.1-0.2-0.2-0.3l-0.2-0.1c-0.1-0.1-0.1-0.2-0.2-0.2l-0.1-0.2c-0.1-0.1-0.1-0.1-0.1-0.2l-0.1-0.1
		c-0.1-0.1-0.1-0.2-0.2-0.2l-0.1-0.1c-0.1-0.1-0.1-0.1-0.2-0.2l-0.1-0.1c-0.1-0.1-0.1-0.1-0.2-0.2l-0.2-0.1
		c-0.1-0.1-0.1-0.1-0.2-0.1l-1.2-0.8l-1.5-0.6l-1.4-0.5l1.7-0.1c0.8-0.1,1.6-0.1,2.4-0.1c3.9,0,7.7,0,11.7,0h0.2
		c10.4,0,21.1,0,31.7-0.1c2.1,0,4.1,0.9,5.6,2.4c1.6,1.6,2.4,3.7,2.4,5.8c-0.1,11.5-0.1,23.2-0.1,34.6c0,4.3,0,8.6,0,12.8v0.3h-0.9
		c-0.5,0-0.9,0-1.3,0h-35.3h-0.2c-0.2,0-0.3,0-0.4-0.1c-2.2-0.3-4.1,0.4-5.4,2l-0.1,0.1c-0.1,0.2-0.3,0.4-0.4,0.6
		c-0.1,0.2-0.2,0.4-0.3,0.6c-1.1,2.5-0.4,5.2,1.7,7l0.2,0.1l2.8,0.8l-1.8-0.1c0.4,0.2,0.9,0.4,1.5,0.4c0.2,0,0.5,0.1,0.7,0.1h0.4
		c0.1,0,0.3,0,0.4,0c0.5,0,1,0,1.4,0h0.1c0.4,0,0.7,0,1,0h0.7l-0.5,0.5c-0.1,0.1-0.2,0.2-0.2,0.2c-0.1,0.1-0.2,0.1-0.3,0.2
		c-0.1,0.1-0.2,0.1-0.3,0.2l-0.6,0.3l-0.2-0.3l0.2,0.3l-0.1,0.1l-0.2-0.2l0.2,0.3l-0.1,0.1l-0.3-0.2l0.2,0.3l-0.1,0.1l-0.3-0.2
		l0.2,0.2l-0.1,0.1l-0.3-0.2l0.3,0.2l-0.2,0.3L100.1,382.6z M89.3,317.2c0.1,0.1,0.2,0.3,0.2,0.4c0.5,1,0.6,2,0.6,2.9
		c0,1.5,0,3.1,0,4.5v2c0,4.2,0,8.5,0,12.8c0,11.2,0.1,22.8-0.1,34.2c-0.1,3.9,2.1,6.9,5.7,7.7l0.1,0.1c0.4,0.1,0.8,0.2,1.1,0.2h2.8
		l0,0l0,0c0-0.1,0.1-0.1,0.1-0.1c0.1-0.1,0.1-0.1,0.1-0.1c0-0.1,0.1-0.1,0.1-0.1l0.1-0.1c0.1,0,0.1-0.1,0.1-0.1l0.6-0.3
		c0.1-0.1,0.2-0.1,0.2-0.1c-0.5,0-0.9,0-1.4,0c-0.2,0-0.3,0-0.4,0h-0.4c-0.3,0-0.5-0.1-0.8-0.1c-1.1-0.1-2-0.5-2.7-1.2l-0.3-0.3
		c-0.2-0.2-0.4-0.4-0.6-0.6l-0.2-0.2l0,0c-1.7-1.9-2.1-4.5-1.1-7c0.1-0.2,0.2-0.5,0.3-0.7c0.2-0.2,0.3-0.4,0.4-0.6l0.1-0.1
		c1.4-1.8,3.5-2.6,6-2.3c0.1,0,0.2,0,0.3,0h0.2h35.2c0.4,0,0.9,0,1.3,0h0.3c0-4.2,0-8.3,0-12.5c0-11.3-0.1-23.1,0.1-34.6
		c0-1.9-0.8-3.9-2.3-5.3c-1.4-1.4-3.2-2.2-5.2-2.2c-10.6,0.1-21.3,0.1-31.7,0.1h-0.2c-4.2,0-8.4,0-12.6,0l1.1,0.6
		c0.1,0.1,0.1,0.1,0.2,0.1l0.2,0.1c0.1,0.1,0.1,0.1,0.2,0.2l0.2,0.1c0.1,0.1,0.1,0.1,0.2,0.2l0.2,0.2c0.1,0.1,0.1,0.1,0.2,0.2
		l0.2,0.2c0.1,0.1,0.1,0.1,0.2,0.2l0.2,0.2c0.1,0.1,0.1,0.1,0.2,0.2l-0.2,0.2l0.3-0.2l0.1,0.1c0.1,0.1,0.1,0.2,0.1,0.2l-0.2,0.3
		l0.3-0.2l0.1,0.1c0.1,0.1,0.1,0.2,0.2,0.3l-0.3,0.2l0.3-0.2l0.1,0.1C89.2,316.9,89.3,317.1,89.3,317.2z"/>
	<a xlink:href="40.0454901960784" >
		<path id="logoMark__x3C_PathItem_x3E__00000050659846723074871740000011804474888299775137_" class="st19" d="M101.7,375.9
			c0.1-0.2,0.1-0.5,0.1-0.7c0.2-0.8-0.2-1.4-0.6-2c-0.1-0.1-0.1-0.2-0.2-0.2c0,0,0-0.1-0.1-0.1c-0.1-0.1-0.1-0.1-0.1-0.2
			c0-0.1-0.1-0.1-0.1-0.1c-0.1-0.1-0.1-0.1-0.1-0.2c0-0.1-0.1-0.1-0.1-0.1c0-0.1-0.1-0.1-0.1-0.1l0,0l3.6-0.1
			c0.1,0.1,0.1,0.2,0.1,0.2c0.1,0.1,0.1,0.2,0.2,0.3c0.1,0.1,0.1,0.2,0.1,0.3s0.1,0.2,0.1,0.3c0.1,0.1,0.1,0.2,0.1,0.3
			s0.1,0.2,0.1,0.3c0.1,0.1,0.1,0.2,0.1,0.3c0,0.1,0.1,0.2,0.1,0.2c0,0.2,0.1,0.3,0.1,0.4c0,0.1,0,0.1,0,0.1
			c0.1,1.7-0.5,3.4-1.7,4.8c-0.1,0.1-0.1,0.1-0.2,0.2c-0.1,0.1-0.2,0.2-0.3,0.3c-0.2,0.2-0.3,0.3-0.5,0.4c-0.4,0-0.8,0-1.2,0
			c-0.5,0-1,0-1.4,0c0,0,0,0-0.1,0c-0.1,0-0.2,0-0.4,0c-0.4,0-0.8-0.1-1.1-0.1c-0.1,0-0.2-0.1-0.3-0.1c-0.1,0-0.1,0-0.1,0
			c-0.1,0-0.2-0.1-0.2-0.1s-0.1,0-0.1-0.1c-0.1,0-0.1-0.1-0.2-0.1s-0.1-0.1-0.1-0.1s-0.1-0.1-0.2-0.1c-0.1,0-0.1-0.1-0.1-0.1
			s-0.1-0.1-0.2-0.1c-0.1,0-0.1-0.1-0.1-0.1s-0.1-0.1-0.2-0.1c-0.1,0-0.1-0.1-0.1-0.1c-0.1-0.1-0.1-0.1-0.2-0.1
			c-0.1,0-0.1-0.1-0.1-0.1c-0.1,0-0.1-0.1-0.1-0.1l-0.1-0.1c0.2,0,0.3,0,0.5,0c0.9,0,1.8,0,2.6-0.4c0.2-0.1,0.4-0.2,0.6-0.3
			C100.9,378.2,101.5,377.2,101.7,375.9z"/>
	</a>
	<path id="logoMark__x3C_CompoundPathItem_x3E__00000100354369340860908800000009154978384093638071_" class="st12" d="M102.6,380.9
		h-0.1c-0.4,0-0.8,0-1.2,0c-0.5,0-1,0-1.4,0h-0.4c-0.4,0-0.8-0.1-1.1-0.1c-0.1,0-0.2-0.1-0.4-0.1H98c-0.1,0-0.2-0.1-0.3-0.1h-0.1
		c-0.1-0.1-0.2-0.1-0.2-0.1l-0.1-0.1c-0.1-0.1-0.2-0.1-0.2-0.1l-0.1-0.1c-0.1-0.1-0.1-0.1-0.2-0.1l-0.1-0.1
		c-0.1-0.1-0.1-0.1-0.2-0.1l-0.1-0.1c-0.1-0.1-0.1-0.1-0.2-0.1l-0.3-0.3l-0.6-0.5h0.8c0.2,0,0.3,0,0.5,0c0.8,0,1.7,0,2.5-0.3
		c0.2-0.1,0.4-0.2,0.6-0.3c1-0.6,1.6-1.5,1.7-2.7l0,0c0.1-0.2,0.1-0.4,0.1-0.6c0.2-0.8-0.2-1.2-0.6-1.8l-0.2-0.3
		c-0.1-0.1-0.1-0.1-0.1-0.2l-0.1-0.1c-0.1-0.1-0.1-0.2-0.1-0.2l-0.3-0.6h0.5l3.8-0.1l0.1,0.2c0.1,0.1,0.1,0.1,0.1,0.2l0.1,0.2
		c0.1,0.1,0.1,0.2,0.1,0.2c0.1,0.1,0.1,0.1,0.1,0.2l0.1,0.2c0.1,0.1,0.1,0.2,0.1,0.2c0,0.1,0.1,0.2,0.1,0.2l0.1,0.2
		c0,0.1,0.1,0.1,0.1,0.2s0.1,0.2,0.1,0.3l0.1,0.2c0,0.1,0,0.1,0.1,0.2c0,0.2,0.1,0.3,0.1,0.4v0.2c0.1,1.8-0.5,3.5-1.8,5
		c-0.1,0.1-0.1,0.1-0.1,0.1l-0.1,0.1c-0.1,0.1-0.2,0.2-0.2,0.2C103,380.7,102.8,380.9,102.6,380.9L102.6,380.9z M97.2,379.9
		L97.2,379.9c0.1,0,0.2,0.1,0.2,0.1l0.1,0.1c0.1,0,0.1,0.1,0.2,0.1l0.1,0.1c0.1,0,0.1,0.1,0.2,0.1l0.1,0.3l0.1-0.3
		c0.1,0,0.2,0.1,0.3,0.1c0.4,0.1,0.8,0.1,1.1,0.1h0.3c0.5,0,1,0,1.4,0c0.4,0,0.8,0,1.1,0c0.1-0.1,0.3-0.2,0.4-0.3
		c0.1-0.1,0.1-0.2,0.2-0.2l0.1-0.1c0.1-0.1,0.1-0.1,0.1-0.1c1.2-1.3,1.8-3,1.7-4.6v-0.1c0-0.1,0-0.3-0.1-0.4c0-0.1,0-0.1,0-0.1
		l-0.1-0.2c0-0.1-0.1-0.2-0.1-0.2c0-0.1-0.1-0.1-0.1-0.2l-0.1-0.2c0-0.1-0.1-0.1-0.1-0.2c0-0.1-0.1-0.1-0.1-0.2l-0.1-0.2
		c0-0.1-0.1-0.1-0.1-0.2c-0.1-0.1-0.1-0.1-0.1-0.2l-0.1-0.1l-2.9,0.1c0,0.1,0.1,0.1,0.1,0.1l-0.2,0.2l0.3-0.2l0.2,0.2
		c0.4,0.6,0.9,1.2,0.7,2.2c0,0.2,0,0.4-0.1,0.7c-0.2,1.4-0.9,2.5-2,3.2c-0.2,0.2-0.5,0.3-0.7,0.4C98.6,379.8,97.9,379.9,97.2,379.9z
		 M100.9,372.7l-0.1,0.1L100.9,372.7L100.9,372.7z"/>
	<a xlink:href="85.5286274509804" >
		<path id="logoMark__x3C_PathItem_x3E__00000119103034302787076220000011158050211769229735_" class="st12" d="M101.6,375.1h-1
			c-1,0-2,0-3.1,0h-0.1c-0.5,0-1,0-1.1-0.6c-0.2-0.5,0-0.9,0.4-1.3c0.1-0.1,0.2-0.2,0.2-0.2l0.1-0.1c0.1-0.1,0.1-0.1,0.2-0.1
			s0.1-0.1,0.1-0.1c0.1-0.1,0.1-0.1,0.2-0.1c0,0,0.1,0,0.1-0.1c0.1-0.1,0.2-0.1,0.3-0.1c0.1,0,0.1,0,0.1-0.1c0.1,0,0.1-0.1,0.2-0.1
			s0.1,0,0.1-0.1c0.1,0,0.1,0,0.2-0.1c0.1,0,0.1,0,0.1,0c0.1,0,0.2,0,0.3-0.1c0.1,0,0.1,0,0.1,0c0.1,0,0.1,0,0.2,0s0.1,0,0.1,0
			c0.1,0,0.2,0,0.2,0s0.1,0,0.1,0c0.1,0,0.2,0,0.3,0.1c0,0,0,0,0.1,0c0.1,0,0.2,0.1,0.3,0.1l0,0c0.1,0,0.3,0.1,0.4,0.1
			c0,0.1,0.1,0.1,0.1,0.2s0.1,0.1,0.1,0.1s0.1,0.1,0.1,0.2c0,0.1,0.1,0.1,0.1,0.1c0.1,0.1,0.1,0.1,0.1,0.2l0.1,0.1
			c0.1,0.1,0.1,0.2,0.2,0.2s0.1,0.2,0.2,0.2c0,0,0,0.1,0.1,0.1c0.1,0.1,0.1,0.1,0.1,0.2v0.1c0.1,0.1,0.1,0.1,0.1,0.2c0,0,0,0,0,0.1
			c0.1,0.1,0.1,0.1,0.1,0.2c0,0,0,0,0,0.1c0,0.1,0.1,0.1,0.1,0.2v0.1c0,0.1,0.1,0.1,0.1,0.2v0.1c0,0.1,0,0.1,0,0.2
			C101.7,375,101.7,375,101.6,375.1C101.7,375,101.7,375,101.6,375.1z"/>
	</a>
	<path id="logoMark__x3C_CompoundPathItem_x3E__00000080165310137405230940000005352201021215102135_" class="st12" d="M101.9,375.4
		h-1.3c-1,0-2,0-3.1,0h-0.1c-0.5,0-1.2,0-1.4-0.8c-0.2-0.6,0-1.2,0.5-1.7c0.1-0.1,0.2-0.2,0.3-0.3l0.1-0.1c0.1-0.1,0.2-0.1,0.2-0.2
		l0.1-0.1c0.1-0.1,0.2-0.1,0.2-0.1l0.1-0.1c0.1-0.1,0.2-0.1,0.3-0.1l0.1-0.1c0.1-0.1,0.2-0.1,0.2-0.1L98,372c0.1,0,0.1-0.1,0.2-0.1
		h0.1c0.1,0,0.2-0.1,0.3-0.1h0.1c0.1,0,0.2,0,0.2,0H99c0.1,0,0.2,0,0.2,0h0.1c0.1,0,0.2,0,0.3,0.1c0.2,0,0.3,0.1,0.4,0.1
		c0.2,0,0.3,0.1,0.4,0.1l0.2,0.1l0.1,0.3c0.1,0.1,0.1,0.1,0.1,0.2l0.1,0.1c0.1,0.1,0.1,0.2,0.1,0.2l-0.2,0.3l0.3-0.2l0.3,0.4
		c0.1,0.1,0.1,0.2,0.2,0.2c0.1,0.1,0.1,0.2,0.2,0.2c0.1,0.1,0.1,0.2,0.1,0.3c0.1,0.1,0.1,0.2,0.1,0.3c0.1,0.1,0.1,0.2,0.1,0.3v0.1
		c0,0.1,0,0.2,0,0.2c0,0.1,0,0.1,0,0.1c0,0.1,0,0.1,0,0.2L101.9,375.4z M101.6,374.9L101.6,374.9L101.6,374.9L101.6,374.9z
		 M96.9,372.9l0.2,0.2c-0.1,0.1-0.2,0.1-0.2,0.2c-0.3,0.4-0.4,0.7-0.3,1.1c0.1,0.3,0.3,0.3,0.8,0.3h0.1c1,0,2,0,3.1,0h0.8v-0.1
		c0-0.1,0-0.2-0.1-0.2c0-0.1-0.1-0.2-0.1-0.2c-0.1-0.1-0.1-0.2-0.1-0.2c-0.1-0.1-0.1-0.2-0.1-0.2l-0.5-0.8c-0.1-0.1-0.1-0.1-0.1-0.2
		l-0.1-0.1c-0.1-0.1-0.1-0.2-0.1-0.2l-0.1-0.1l0,0c-0.1,0-0.2-0.1-0.2-0.1c-0.1,0-0.2-0.1-0.3-0.1c-0.2,0-0.2,0-0.3-0.1h-0.1
		c-0.1,0-0.1,0-0.2,0h-0.1c-0.1,0-0.1,0-0.2,0h-0.1c-0.1,0-0.2,0-0.2,0.1h-0.1c-0.1,0-0.1,0-0.2,0.1l-0.1,0.1
		c-0.1,0-0.1,0.1-0.2,0.1l-0.2-0.3l0.1,0.3c-0.1,0.1-0.2,0.1-0.2,0.1c-0.1,0.1-0.2,0.1-0.2,0.1l-0.1,0.1c-0.1,0.1-0.1,0.1-0.2,0.1
		L96.9,372.9z M100.4,372.5L100.4,372.5L100.4,372.5L100.4,372.5z"/>
	<a xlink:href="31.9560784313726" >
		<path id="logoMark__x3C_PathItem_x3E__00000129912526093326770600000004303238209143448200_" class="st21" d="M100.5,372.2
			c-1.3-0.3-2.8-0.4-3.9,0.8c-0.4,0.5-0.6,1-0.4,1.6c0.2,0.7,0.8,0.7,1.3,0.7h0.1c1,0,2,0,3,0h1.1c0,0.1,0,0.1,0,0.2
			c0,0.1,0,0.1,0,0.2c0,0.1,0,0.1,0,0.2c0,0.1,0,0.1,0,0.2c0,0.1,0,0.1-0.1,0.2c0,0.1,0,0.1-0.1,0.2c0,0.1,0,0.1-0.1,0.2
			c0,0.1,0,0.1-0.1,0.2c0,0.1-0.1,0.1-0.1,0.2c0,0.1-0.1,0.1-0.1,0.2c0,0.1-0.1,0.1-0.1,0.2c0,0.1-0.1,0.1-0.1,0.2s-0.1,0.1-0.1,0.2
			c0,0.1-0.1,0.1-0.1,0.1c0,0.1-0.1,0.1-0.1,0.1c0,0.1-0.1,0.1-0.1,0.1c-0.1,0.1-0.1,0.1-0.1,0.1c-0.1,0.1-0.1,0.1-0.1,0.1
			c-0.1,0.1-0.1,0.1-0.1,0.1c-0.1,0.1-0.1,0.1-0.1,0.1c-0.1,0.1-0.1,0.1-0.1,0.1c-0.1,0.1-0.1,0.1-0.1,0.1c-0.1,0.1-0.1,0.1-0.1,0.1
			c-0.1,0.1-0.1,0.1-0.1,0.1c-0.1,0.1-0.1,0.1-0.1,0.1c-0.1,0-0.1,0.1-0.1,0.1c-0.1,0.1-0.1,0.1-0.2,0.1c-0.1,0-0.1,0.1-0.1,0.1
			c-0.1,0.1-0.1,0.1-0.2,0.1c-0.1,0-0.1,0.1-0.1,0.1c-0.1,0.1-0.2,0.1-0.3,0.1c-0.8,0.3-1.7,0.3-2.6,0.3c-0.2,0-0.4,0-0.6,0
			l-0.1-0.1l0.1,0.1l0,0l-0.3-0.3l0,0c-2.2-1.8-2.9-4.6-1.8-7.2c0.1-0.2,0.1-0.3,0.2-0.4c0-0.1,0.1-0.1,0.1-0.1
			c0.1-0.1,0.1-0.2,0.2-0.3c0.1-0.1,0.1-0.1,0.1-0.2c0.1-0.1,0.1-0.2,0.2-0.2s0.1-0.1,0.1-0.2c0.1-0.1,0.1-0.2,0.2-0.2
			c0.1-0.1,0.1-0.1,0.1-0.1c0.1-0.1,0.1-0.1,0.2-0.2c0.1-0.1,0.1-0.1,0.1-0.1c0.1-0.1,0.2-0.1,0.2-0.2c0.1-0.1,0.1-0.1,0.1-0.1
			c0.1-0.1,0.2-0.2,0.3-0.2l0.1-0.1c0.1-0.1,0.3-0.2,0.4-0.2c0,0,0.1,0,0.1-0.1c0.1-0.1,0.2-0.1,0.3-0.2c0.1,0,0.1-0.1,0.1-0.1
			c0.1-0.1,0.2-0.1,0.3-0.1c0.1,0,0.1-0.1,0.2-0.1c0.1-0.1,0.2-0.1,0.3-0.1c0.1,0,0.1-0.1,0.2-0.1c0.1,0,0.2-0.1,0.3-0.1
			s0.1,0,0.2-0.1c0.1,0,0.2-0.1,0.3-0.1c0.1,0,0.1,0,0.2,0c0.1,0,0.2,0,0.4,0c0.1,0,0.1,0,0.1,0c0.1,0,0.2,0,0.4,0
			c0.1,0,0.1,0,0.2,0c0.2,0,0.3,0.1,0.5,0.1c0.1,0,0.3,0,0.4,0c0.1,0,0.1,0,0.1,0v0.1v0.1c0,0.1,0,0.1,0.1,0.1c0,0,0,0.1,0.1,0.1
			l0.1,0.1c0,0,0,0.1,0.1,0.1l0.1,0.1l0.1,0.1l0.1,0.1c0,0,0.1,0,0.1,0.1c0,0,0.1,0.1,0.1,0.1c0,0,0.1,0,0.1,0.1
			c0.1,0,0.1,0.1,0.1,0.1h0.1c0.1,0,0.1,0.1,0.1,0.1l0.1,0.1c0.2,0.1,0.3,0.2,0.4,0.2c0.1,0,0.1,0.1,0.1,0.1
			c0.1,0.1,0.2,0.1,0.3,0.2c0.1,0.1,0.1,0.1,0.1,0.1c0.1,0.1,0.2,0.1,0.2,0.2c0.1,0.1,0.1,0.1,0.1,0.1c0.1,0.1,0.2,0.2,0.2,0.2
			c0.1,0.1,0.1,0.1,0.1,0.1c0.1,0.1,0.1,0.2,0.2,0.2c0.1,0.1,0.1,0.1,0.1,0.2c0.1,0.1,0.1,0.2,0.2,0.3c0.1,0.1,0.1,0.1,0.1,0.2
			c0.1,0.1,0.1,0.2,0.1,0.3c0.1,0.1,0.1,0.2,0.1,0.3c0,0.1,0.1,0.1,0.1,0.2L100.5,372.2z"/>
	</a>
	<path id="logoMark__x3C_CompoundPathItem_x3E__00000034059121182695774950000008237779449501476747_" class="st12" d="M95.8,379.7
		l-0.1-0.1l0,0l0,0l0,0l-0.3-0.3c-2.3-1.9-3-4.8-1.8-7.6c0.1-0.2,0.2-0.3,0.2-0.4l0.1-0.1c0.1-0.2,0.2-0.2,0.2-0.3l0.1-0.1
		c0.1-0.1,0.2-0.2,0.2-0.3l0.1-0.2c0.1-0.1,0.1-0.2,0.2-0.2l0.1-0.2c0.1-0.1,0.2-0.2,0.2-0.2l0.1-0.1c0.1-0.1,0.2-0.2,0.2-0.2
		l0.1-0.1c0.1-0.1,0.2-0.2,0.3-0.2l0.1-0.1c0.1-0.1,0.3-0.2,0.4-0.3l0.1-0.1c0.1-0.1,0.2-0.1,0.4-0.2l0.2,0.1
		c0.2-0.1,0.3-0.1,0.4-0.2l0.1-0.1c0.1-0.1,0.2-0.1,0.3-0.1l0.2-0.1c0.1,0,0.2-0.1,0.3-0.1l0.2-0.1c0.1,0,0.2-0.1,0.3-0.1h0.2
		c0.1,0,0.3,0,0.4,0h0.2c0.1,0,0.3,0,0.4,0h0.2c0.2,0,0.4,0.1,0.5,0.1c0.1,0,0.3,0,0.4,0h0.4l0.2,0.5l0.2,0.2l0.5,0.3
		c0.2,0.1,0.3,0.2,0.5,0.3c0.1,0,0.1,0.1,0.1,0.1l-0.1,0.3l0.2-0.3c0.1,0.1,0.2,0.1,0.3,0.2c0.1,0,0.1,0.1,0.1,0.1l-0.2,0.3l0.2-0.2
		c0.1,0.1,0.2,0.1,0.2,0.2c0.1,0.1,0.1,0.1,0.1,0.1l-0.2,0.3l0.3-0.2c0.1,0.1,0.2,0.1,0.2,0.2c0.1,0.1,0.1,0.1,0.1,0.1l-0.2,0.3
		l0.3-0.2c0.1,0.1,0.1,0.2,0.2,0.2c0,0.1,0.1,0.1,0.1,0.1l-0.2,0.2l0.3-0.2c0.1,0.1,0.1,0.2,0.2,0.3c0.1,0.1,0.1,0.1,0.1,0.2
		l-0.3,0.2l0.3-0.1c0.1,0.1,0.1,0.2,0.1,0.2c0.1,0.1,0.1,0.2,0.1,0.2l-0.2,0.2l0,0l0.3-0.1l0.2,0.5l-4.2,0.1h-0.1
		c-1.4-0.3-2.6-0.3-3.6,0.8c-0.4,0.4-0.5,0.8-0.4,1.2c0.1,0.4,0.4,0.4,1,0.4h0.1c1,0,2,0,3,0h1.4l-0.1,0.8l-0.3,0.1l0.3,0.1
		l-0.1,0.3h-0.3l0.3,0.1l-0.1,0.3h-0.3l0.3,0.1l-0.1,0.3h-0.3l0.3,0.1l-0.1,0.2l-0.3-0.1l0.3,0.1l-0.1,0.2l-0.3-0.1l0.3,0.2
		l-0.1,0.2l-0.3-0.1l0.3,0.2l-0.1,0.2l-0.3-0.1l0.3,0.2L101,378l-0.3-0.2l0.3,0.2l-0.2,0.2l-0.3-0.2l0.2,0.2l-0.2,0.2l-0.3-0.2
		l0.2,0.2l-0.1,0.1c-0.1,0.1-0.1,0.1-0.1,0.1l-0.3-0.2l0.2,0.3l-0.1,0.1c-0.1,0.1-0.1,0.1-0.1,0.1l-0.3-0.2l0.2,0.3l-0.1,0.1
		c-0.1,0.1-0.1,0.1-0.2,0.1l-0.2-0.3l0.2,0.3l-0.1,0.1c-0.1,0.1-0.2,0.1-0.3,0.2c-1.1,0.5-2.3,0.3-3.3,0.4L95.8,379.7z M95.9,369.4
		l0.2,0.3c-0.1,0.1-0.2,0.1-0.3,0.2l-0.1,0.1c-0.1,0.1-0.2,0.2-0.3,0.2l-0.1,0.1c-0.1,0.1-0.2,0.2-0.2,0.2l-0.1,0.1
		c-0.1,0.1-0.1,0.1-0.2,0.2l-0.1,0.2c-0.1,0.1-0.1,0.2-0.2,0.2l-0.1,0.2c-0.1,0.1-0.1,0.2-0.2,0.3l-0.1,0.1
		c-0.1,0.1-0.2,0.3-0.2,0.4c-1.1,2.5-0.4,5.1,1.7,6.8l0.2,0.2c1,0,2,0.1,3-0.3c0.1-0.1,0.2-0.1,0.3-0.1l0.1-0.1
		c0.1-0.1,0.1-0.1,0.2-0.1l1.1-1l0.5-1.1l0.2-0.9h-0.8c-1,0-2,0-3,0h-0.1c-0.5,0-1.3,0-1.6-0.9c-0.2-0.6,0-1.2,0.5-1.8
		c1.2-1.3,2.8-1.2,4.2-0.9l3.2-0.1c-0.1-0.1-0.1-0.1-0.1-0.2l-0.1-0.1c0-0.1-0.1-0.1-0.1-0.1c-0.1-0.1-0.1-0.2-0.2-0.2l-0.1-0.2
		c-0.1-0.1-0.1-0.2-0.2-0.2l-0.1-0.2c-0.1-0.1-0.1-0.1-0.2-0.2l-0.2-0.1c-0.1-0.1-0.1-0.1-0.2-0.2l-0.2-0.1
		c-0.1-0.1-0.2-0.1-0.2-0.2l-0.2-0.1c-0.1-0.1-0.3-0.2-0.4-0.2l-0.6-0.3c-0.1,0-0.1-0.1-0.1-0.1l-0.1-0.1c-0.1-0.1-0.1-0.1-0.1-0.1
		l-0.1-0.1c-0.1-0.1-0.1-0.1-0.1-0.1l-0.1-0.1V369c-0.1,0-0.2,0-0.3,0c-0.2,0-0.3-0.1-0.5-0.1h-0.2c-0.1,0-0.2,0-0.3,0H99
		c-0.1,0-0.2,0-0.3,0h-0.1c-0.2,0-0.3,0.1-0.3,0.1h-0.2c-0.1,0-0.2,0.1-0.3,0.1l-0.2,0.1c-0.1,0-0.2,0.1-0.3,0.1l-0.2,0.1
		c-0.1,0.1-0.2,0.1-0.3,0.1l-0.1,0.1c-0.1,0.1-0.2,0.1-0.3,0.2l-0.2-0.3l0.2,0.3c-0.1,0.1-0.3,0.2-0.4,0.2L95.9,369.4z"/>
	<a xlink:href="27.8894117647059" >
		<path id="logoMark__x3C_PathItem_x3E__00000091718175184881588600000002172939517310602663_" class="st22" d="M145.3,376.8
			c-0.5,3.2-3.2,4.8-5.5,5.5h-33.2h-6.3c0,0,0,0,0-0.1l0.1-0.1c0-0.1,0.1-0.1,0.1-0.1l0.1-0.1l0.1-0.1l0.1-0.1l0.1-0.1l0.1-0.1
			c0.1,0,0.1-0.1,0.1-0.1l0.1-0.1c0.1,0,0.1-0.1,0.1-0.1c0,0,0.1,0,0.1-0.1c0.1,0,0.1-0.1,0.1-0.1h0.1c0.1,0,0.1-0.1,0.2-0.1
			c0.1-0.1,0.2-0.1,0.2-0.1c0.3-0.1,0.5-0.3,0.8-0.5c0.1-0.1,0.1-0.1,0.1-0.1c0.2-0.2,0.3-0.3,0.5-0.4l0,0c2.2-2.1,2.8-5.1,1.6-7.6
			c-0.1-0.2-0.2-0.3-0.3-0.5c-0.4-1.1-1.1-1.9-1.9-2.5c-0.2-0.2-0.5-0.3-0.7-0.4l-0.1-0.1c-0.1,0-0.1-0.1-0.1-0.1s0,0-0.1,0
			s-0.1-0.1-0.1-0.1h-0.1l-0.1-0.1c0,0-0.1,0-0.1-0.1l-0.1-0.1c0,0,0,0-0.1-0.1l-0.1-0.1c0,0,0-0.1-0.1-0.1l-0.1-0.1
			c0,0,0-0.1-0.1-0.1c0,0,0-0.1-0.1-0.1v-0.1c0,0,0,0,0-0.1h4.1c10.5,0,20.9,0,31.4,0c0.5,0,0.9,0,1.4,0c0.2,0,0.4,0,0.6,0
			c3.7,0.2,6.3,2.2,6.8,5.5C145.4,374.9,145.4,375.8,145.3,376.8z"/>
	</a>
	<path id="logoMark__x3C_CompoundPathItem_x3E__00000078741274899408681940000005852057507690356364_" class="st12" d="M139.9,382.6
		H99.8l0.3-0.5c0.1-0.1,0.1-0.1,0.1-0.2c0-0.1,0.1-0.1,0.1-0.1c0-0.1,0.1-0.1,0.1-0.1c0.1-0.1,0.1-0.1,0.1-0.1l0.1-0.1
		c0.1,0,0.1-0.1,0.1-0.1l0.5-0.3l0.4-0.2c0.2-0.1,0.5-0.2,0.6-0.4c0.1-0.1,0.1-0.1,0.1-0.1l0.1-0.1c0.2-0.2,0.3-0.3,0.5-0.4
		c2.1-2,2.7-4.9,1.5-7.2c-0.1-0.2-0.2-0.3-0.3-0.5c-0.4-1.1-1-1.8-1.8-2.4c-0.2-0.2-0.5-0.3-0.7-0.4l-0.5-0.3
		c-0.1,0-0.1-0.1-0.1-0.1l-0.1-0.1l-0.1-0.1l-0.1-0.1c0-0.1-0.1-0.1-0.1-0.1l-0.1-0.1c0-0.1-0.1-0.1-0.1-0.1v-0.1l-0.1-0.4l0.4-0.1
		h35.5c0.4,0,0.9,0,1.3,0h0.6c3.9,0.2,6.6,2.3,7.1,5.7c0.2,1,0.2,1.9,0,2.9l0,0C145.1,380.2,142.3,381.8,139.9,382.6L139.9,382.6z
		 M101.2,382h38.6c2.1-0.7,4.7-2.2,5.2-5.2l0,0c0.2-0.9,0.2-1.8,0-2.7c-0.5-3.1-3-5-6.6-5.2h-0.6c-0.5,0-0.9,0-1.4,0h-34.8l0.2,0.1
		c0.3,0.1,0.5,0.3,0.8,0.4c0.9,0.6,1.6,1.5,2,2.6c0.1,0.1,0.2,0.3,0.3,0.5c1.3,2.6,0.6,5.7-1.7,7.9c-0.2,0.2-0.3,0.3-0.5,0.4
		c-0.1,0.1-0.1,0.1-0.1,0.1c-0.3,0.3-0.6,0.4-0.9,0.6l-0.5,0.3l-0.2-0.3L101.2,382L101.2,382z M101.1,382L101.1,382l-0.2-0.2
		L101.1,382z M100.9,382L100.9,382l-0.1-0.1L100.9,382z"/>
	<a xlink:href="38.0803921568627" >
		<path id="logoMark__x3C_PathItem_x3E__00000036247099731421578700000016401188639705579421_" class="st23" d="M132.8,345.3
			c-0.3,0.2-0.6,0.3-1.3,0.2c-4-0.1-8.2,0-12.1,0c-1.5,0-3,0-4.5,0c-1.5,0-3,0-4.5,0c-1,0-1.9,0-3,0c-3,0-6,0-8.9,0
			c-0.7,0-1.1-0.1-1.4-0.3c-0.3-0.2-0.4-0.5-0.4-1c0-0.4,0.1-0.7,0.4-0.9c0.1,0,0.1-0.1,0.1-0.1c0.3-0.1,0.6-0.2,1.3-0.2l0,0
			c11.7,0,22.4,0,32.9,0c0.6,0,1.1,0.1,1.3,0.3c0.3,0.2,0.4,0.4,0.4,0.9C133.1,344.9,133,345.1,132.8,345.3z"/>
	</a>
	<path id="logoMark__x3C_CompoundPathItem_x3E__00000037661785964325338250000013888173488989132964_" class="st12" d="M98.5,345.9
		c-0.8,0-1.2-0.1-1.5-0.3c-0.5-0.3-0.5-0.9-0.5-1.2c0-0.5,0.2-0.9,0.5-1.1c0.1-0.1,0.1-0.1,0.2-0.1c0.3-0.2,0.8-0.2,1.4-0.2
		c11.7,0,22.4,0,33,0c0.8,0,1.2,0.1,1.5,0.3c0.4,0.3,0.5,0.8,0.5,1.2c0,0.4-0.1,0.9-0.5,1.2l0,0c-0.3,0.2-0.8,0.3-1.5,0.3
		c-4.1-0.1-8.2,0-12.1,0h-4.5h-7.4C104.5,345.8,101.5,345.8,98.5,345.9C98.5,345.9,98.5,345.9,98.5,345.9z M98.5,343.6
		c-0.6,0-1,0.1-1.1,0.2c0,0-0.1,0-0.1,0.1c-0.1,0.1-0.2,0.2-0.2,0.6c0,0.5,0.1,0.6,0.2,0.7c0.2,0.2,0.6,0.2,1.2,0.2c3,0,6-0.1,8.9,0
		h7.4h4.5c4,0,8.1,0,12.1,0c0.6,0,0.9-0.1,1.1-0.2l0,0c0.1-0.1,0.2-0.2,0.2-0.6c0-0.4-0.1-0.6-0.2-0.6c-0.2-0.1-0.5-0.2-1.1-0.2
		C120.9,343.6,110.1,343.6,98.5,343.6z"/>
	<a xlink:href="38.0803921568627" >
		<path id="logoMark__x3C_PathItem_x3E__00000070119890989603329980000009143411807037080213_" class="st23" d="M98.4,356
			C98.4,356,98.4,356,98.4,356c11.1,0.1,22.2,0.1,33.1,0l0,0c1.3,0,1.6,0.4,1.6,1.2c0,0.4-0.1,0.7-0.3,0.9c-0.3,0.2-0.6,0.3-1.4,0.3
			c-4-0.1-8.1,0-12,0c-3,0-5.9,0-8.8,0c-1,0-2,0-3,0c-3,0-6.1,0-9.1,0c-0.7,0-1.1-0.1-1.3-0.3c-0.3-0.2-0.4-0.4-0.4-0.9
			C96.8,356.4,97,356,98.4,356z"/>
	</a>
	<path id="logoMark__x3C_CompoundPathItem_x3E__00000054974197318789198280000017152501495602526399_" class="st12" d="M98.4,358.7
		c-0.7,0-1.1-0.1-1.4-0.3c-0.4-0.3-0.5-0.8-0.5-1.2c0-1.1,0.5-1.5,1.9-1.5l0,0c11.1,0.1,22.2,0.1,33.1,0c1.4,0,1.9,0.4,1.9,1.5
		c0,0.5-0.2,0.9-0.5,1.2c-0.3,0.2-0.8,0.3-1.6,0.3c-4-0.1-8.1,0-12,0c-3,0-5.9,0-8.9,0h-3C104.5,358.7,101.4,358.7,98.4,358.7
		C98.4,358.7,98.4,358.7,98.4,358.7z M98.4,356v0.3c-1.3,0-1.3,0.3-1.3,0.9c0,0.4,0.1,0.5,0.2,0.6c0.2,0.1,0.6,0.2,1.2,0.2
		c3,0,6.1,0,9.1,0h3c3,0,5.9,0,8.8,0c3.9,0,8,0,12.1,0c0.6,0,1-0.1,1.2-0.2c0.1-0.1,0.2-0.2,0.2-0.6c0-0.6,0-0.9-1.3-0.9
		c-10.9,0.1-22,0.1-33.1,0L98.4,356z"/>
	<a xlink:href="38.0803921568627" >
		<path id="logoMark__x3C_PathItem_x3E__00000011023559434164574220000011867414199856793776_" class="st23" d="M98.4,349.6
			C98.4,349.6,98.4,349.6,98.4,349.6c11.1,0.1,22.2,0.1,33.1,0l0,0c1.3,0,1.6,0.4,1.6,1.2c0,0.4-0.1,0.7-0.3,0.9
			c-0.3,0.2-0.7,0.3-1.4,0.3c-4.1,0-8.2,0-12.2,0c-3,0-5.9,0-8.8,0c-3.9,0-7.9,0-11.9,0c-0.7,0-1.1-0.1-1.3-0.2
			c-0.3-0.2-0.4-0.4-0.4-0.9C96.8,350,97,349.6,98.4,349.6z"/>
	</a>
	<path id="logoMark__x3C_CompoundPathItem_x3E__00000059299580580711792860000008845166327471580084_" class="st12" d="M98.4,352.3
		c-0.7,0-1.1-0.1-1.4-0.3c-0.3-0.2-0.5-0.6-0.5-1.2c0-1.1,0.5-1.5,1.9-1.5l0,0c11.1,0.1,22.2,0.1,33.1,0c1.4,0,1.9,0.4,1.9,1.5
		c0,0.5-0.2,0.9-0.5,1.1c-0.3,0.2-0.8,0.3-1.6,0.3c-4.1-0.1-8.2,0-12.2,0c-3,0-5.9,0-8.8,0h-0.1C106.4,352.2,102.4,352.2,98.4,352.3
		C98.4,352.3,98.4,352.3,98.4,352.3z M98.4,349.6v0.3c-1.3,0-1.3,0.3-1.3,0.9c0,0.4,0.1,0.5,0.2,0.6c0.2,0.1,0.6,0.2,1.2,0.2
		c4-0.1,7.9,0,11.9,0h0.1c3,0,5.9,0,8.8,0c4,0,8.1,0,12.2,0c0.6,0,1-0.1,1.2-0.2c0.1-0.1,0.2-0.2,0.2-0.6c0-0.5,0-0.9-1.3-0.9
		c-10.9,0.1-22,0.1-33.1,0L98.4,349.6z"/>
	<a xlink:href="38.0803921568627" >
		<path id="logoMark__x3C_PathItem_x3E__00000138539727585372280690000002999711373053127331_" class="st23" d="M132.8,364.5
			c-0.2,0.2-0.6,0.2-1.1,0.2c-0.1,0-0.2,0-0.3,0c-4-0.1-8.1,0-12.1,0c-3,0-5.9,0-8.8,0c-4,0-8.1,0-12.1,0c-0.7,0-1.1-0.1-1.3-0.2
			c-0.3-0.2-0.4-0.4-0.3-0.9c0-0.8,0.3-1.2,1.6-1.2l0,0c5.5,0,11.1,0,16.6,0c5.5,0,11,0,16.5,0l0,0c1.3,0,1.6,0.4,1.6,1.2
			C133.1,364,133,364.3,132.8,364.5z"/>
	</a>
	<path id="logoMark__x3C_CompoundPathItem_x3E__00000000939420427480955330000012584453253724151441_" class="st12" d="M98.4,365
		c-0.7,0-1.2-0.1-1.4-0.3c-0.3-0.2-0.5-0.6-0.5-1.2c0-1.1,0.5-1.5,1.9-1.5c5.5,0,11.1,0,16.6,0c5.5,0,11,0,16.5,0
		c1.4,0,1.9,0.4,2,1.5c0,0.5-0.2,0.9-0.5,1.1l0,0c-0.3,0.2-0.7,0.3-1.3,0.3c-0.1,0-0.2,0-0.3,0c-4-0.1-8.1,0-12,0c-3,0-5.9,0-8.9,0
		c-4,0-8.1,0-12,0C98.4,365,98.4,365,98.4,365z M98.4,362.7c-1.3,0-1.3,0.3-1.3,0.9c0,0.4,0.1,0.5,0.2,0.6c0.2,0.1,0.6,0.2,1.2,0.2
		c4-0.1,8.1,0,12,0c3,0,5.9,0,8.8,0c4,0,8.1,0,12.1,0c0.1,0,0.2,0,0.2,0c0.5,0,0.8-0.1,1-0.2c0.1-0.1,0.2-0.2,0.2-0.6
		c0-0.5,0-0.9-1.3-0.9c-5.5,0-11,0-16.5,0C109.4,362.7,103.9,362.7,98.4,362.7z"/>
	<a xlink:href="38.0803921568627" >
		<path id="logoMark__x3C_PathItem_x3E__00000156552611097762475200000013634558404703696806_" class="st23" d="M132.8,338.9
			c-0.2,0.2-0.6,0.2-1.1,0.2c-0.1,0-0.2,0-0.3,0c-4-0.1-8.1,0-12.1,0c-3,0-5.9,0-8.8,0c-4,0-8.1,0-12.1,0c-0.7,0-1.1-0.1-1.3-0.2
			c-0.3-0.2-0.4-0.4-0.3-0.9c0-0.8,0.3-1.2,1.6-1.2l0,0c5.5,0,11.1,0,16.6,0c5.5,0,11,0,16.5,0l0,0c1.3,0,1.6,0.4,1.6,1.2
			C133.1,338.5,133,338.7,132.8,338.9z"/>
	</a>
	<path id="logoMark__x3C_CompoundPathItem_x3E__00000046313438883685352820000013262074412176843171_" class="st12" d="M98.4,339.5
		c-0.7,0-1.2-0.1-1.4-0.3c-0.3-0.2-0.5-0.6-0.5-1.2c0-1.1,0.5-1.5,1.9-1.5c5.5,0,11.1,0,16.6,0c5.5,0,11,0,16.5,0
		c1.4,0,1.9,0.4,2,1.5c0,0.5-0.2,0.9-0.5,1.1l0,0c-0.3,0.2-0.7,0.3-1.3,0.3c-0.1,0-0.2,0-0.3,0c-4-0.1-8.1,0-12,0c-3,0-5.9,0-8.9,0
		c-4,0-8.1,0-12,0C98.4,339.5,98.4,339.5,98.4,339.5z M98.4,337.2c-1.3,0-1.3,0.3-1.3,0.9c0,0.4,0.1,0.5,0.2,0.6
		c0.2,0.1,0.6,0.2,1.2,0.2c4-0.1,8.1,0,12,0c3,0,5.9,0,8.8,0c4,0,8.1,0,12.1,0c0.1,0,0.2,0,0.2,0c0.5,0,0.8-0.1,1-0.2l0,0
		c0.1-0.1,0.2-0.2,0.2-0.6c0-0.5,0-0.9-1.3-0.9c-5.5,0-11,0-16.5,0C109.4,337.2,103.9,337.2,98.4,337.2z"/>
	<a xlink:href="38.0803921568627" >
		<path id="logoMark__x3C_PathItem_x3E__00000143618639670750927520000016273120597916300686_" class="st23" d="M132.8,332.5
			c-0.2,0.2-0.6,0.2-1.1,0.2c-0.1,0-0.2,0-0.3,0c-4-0.1-8.1,0-12.1,0c-3,0-5.9,0-8.8,0c-4,0-8.1,0-12.1,0c-0.7,0-1.1-0.1-1.3-0.2
			c-0.3-0.2-0.4-0.4-0.3-0.9c0-0.8,0.3-1.2,1.6-1.2l0,0c5.5,0,11.1,0,16.6,0c5.5,0,11,0,16.5,0l0,0c1.3,0,1.6,0.4,1.6,1.2
			C133.1,332.1,133,332.3,132.8,332.5z"/>
	</a>
	<path id="logoMark__x3C_CompoundPathItem_x3E__00000106828785499454108110000015400700674774427535_" class="st12" d="M98.4,333.1
		c-0.7,0-1.2-0.1-1.4-0.3c-0.3-0.2-0.5-0.6-0.5-1.2c0-1.1,0.5-1.5,1.9-1.5c5.5,0,11.1,0,16.6,0c5.5,0,11,0,16.5,0
		c1.4,0,1.9,0.4,2,1.5c0,0.5-0.2,0.9-0.5,1.1l0,0c-0.3,0.2-0.7,0.3-1.3,0.3c-0.1,0-0.2,0-0.3,0c-4-0.1-8.1,0-12,0c-3,0-5.9,0-8.9,0
		c-4,0-8.1,0-12,0C98.4,333.1,98.4,333.1,98.4,333.1z M98.4,330.8c-1.3,0-1.3,0.3-1.3,0.9c0,0.4,0.1,0.5,0.2,0.6
		c0.2,0.1,0.6,0.2,1.2,0.2c4-0.1,8.1,0,12,0c3,0,5.9,0,8.8,0c4,0,8.1,0,12.1,0c0.1,0,0.2,0,0.2,0c0.5,0,0.8-0.1,1-0.2l0,0
		c0.1-0.1,0.2-0.2,0.2-0.6c0-0.5,0-0.9-1.3-0.9c-5.5,0-11,0-16.5,0C109.4,330.8,103.9,330.8,98.4,330.8z"/>
	<a xlink:href="38.0803921568627" >
		<path id="logoMark__x3C_PathItem_x3E__00000106120623135217113390000009995263511714648250_" class="st23" d="M132.8,326.2
			c-0.2,0.2-0.6,0.2-1.1,0.2c-0.1,0-0.2,0-0.3,0c-4-0.1-8.1,0-12.1,0c-3,0-5.9,0-8.8,0c-4,0-8.1,0-12.1,0c-0.7,0-1.1-0.1-1.3-0.2
			c-0.3-0.2-0.4-0.4-0.3-0.9c0-0.8,0.3-1.2,1.6-1.2l0,0c5.5,0,11.1,0,16.6,0c5.5,0,11,0,16.5,0l0,0c1.3,0,1.6,0.4,1.6,1.2
			C133.1,325.7,133,326,132.8,326.2z"/>
	</a>
	<path id="logoMark__x3C_CompoundPathItem_x3E__00000003800597820367416410000016501218074625833644_" class="st12" d="M98.4,326.7
		c-0.7,0-1.2-0.1-1.4-0.3c-0.3-0.2-0.5-0.6-0.5-1.2c0-1.1,0.5-1.5,1.9-1.5c5.5,0,11.1,0,16.6,0c5.5,0,11,0,16.5,0
		c1.4,0,1.9,0.4,2,1.5c0,0.5-0.2,0.9-0.5,1.1l0,0c-0.3,0.2-0.7,0.3-1.3,0.3c-0.1,0-0.2,0-0.3,0c-4-0.1-8.1,0-12,0c-3,0-5.9,0-8.9,0
		c-4,0-8.1,0-12,0C98.4,326.7,98.4,326.7,98.4,326.7z M98.4,324.4c-1.3,0-1.3,0.3-1.3,0.9c0,0.4,0.1,0.5,0.2,0.6
		c0.2,0.1,0.6,0.2,1.2,0.2c4-0.1,8.1,0,12,0c3,0,5.9,0,8.8,0c4,0,8.1,0,12.1,0c0.1,0,0.2,0,0.2,0c0.5,0,0.8-0.1,1-0.2l0,0
		c0.1-0.1,0.2-0.2,0.2-0.6c0-0.5,0-0.9-1.3-0.9c-5.5,0-11,0-16.5,0C109.4,324.5,103.9,324.5,98.4,324.4z"/>
</g>
<path class="st15" d="M419.2,386.6h-56.3v-59.3h12.9v47.8h43.4V386.6z"/>
<path class="st15" d="M417.8,339.6c6.3,0,11.5-5.2,11.5-11.5c0-6.3-5.2-11.5-11.5-11.5c-6.3,0-11.5,5.2-11.5,11.5
	C406.3,334.5,411.5,339.6,417.8,339.6z"/>
<path class="st10" d="M403.6,162.5v31.4c0,2,1.1,3.9,2.9,4.9l28.5,15.7c1.8,1,4.1,1,5.9,0l28.5-15.7c1.8-1,2.9-2.8,2.9-4.9v-31.4
	c0-2-1.1-3.9-2.9-4.9L440.8,142c-1.8-1-4.1-1-5.9,0l-28.5,15.7C404.7,158.6,403.6,160.5,403.6,162.5z"/>
<path class="st24" d="M444.1,184.3l-4.1,10.6c-0.1,0.3-0.1,0.6,0,0.9l7,18.3l8.1-4.5l-9.7-25.4C445.2,183.7,444.3,183.7,444.1,184.3
	z"/>
<path class="st24" d="M452.2,166.4c-0.2-0.6-1.1-0.6-1.3,0l-4.1,10.6c-0.1,0.3-0.1,0.6,0,0.9l11.4,29.9l8.1-4.5L452.2,166.4z"/>
<path class="st25" d="M437.9,143.1c0.2,0,0.4,0.1,0.6,0.1l30.8,17c0.4,0.2,0.6,0.6,0.6,1v33.9c0,0.4-0.2,0.8-0.6,1l-30.8,17
	c-0.2,0.1-0.4,0.1-0.6,0.1c-0.2,0-0.4-0.1-0.6-0.1l-30.8-17c-0.4-0.2-0.6-0.6-0.6-1v-33.9c0-0.4,0.2-0.8,0.6-1l30.8-17
	C437.5,143.2,437.7,143.1,437.9,143.1z M437.9,138.2c-1.1,0-2.2,0.3-3.2,0.8l-30.8,17c-2,1.1-3.2,3.1-3.2,5.3v33.9
	c0,2.2,1.2,4.2,3.2,5.3l30.8,17c1,0.5,2.1,0.8,3.2,0.8c1.1,0,2.2-0.3,3.2-0.8l30.8-17c2-1.1,3.2-3.1,3.2-5.3v-33.9
	c0-2.2-1.2-4.2-3.2-5.3l-30.8-17C440.1,138.4,439,138.2,437.9,138.2z"/>
<path class="st10" d="M417.5,207.9l2.8-7.4l5.7,4.5l-5.3,4.6L417.5,207.9z"/>
<path class="st15" d="M435.3,158.8h-7.8c-0.6,0-1.1,0.3-1.3,0.9l-16.7,43.8l8.1,4.5l18.4-48.2C436.1,159.2,435.8,158.8,435.3,158.8z
	"/>
<path class="st15" d="M449,158.8h-7.8c-0.6,0-1.1,0.3-1.3,0.9l-19.1,50l8.1,4.5l20.8-54.4C449.8,159.2,449.4,158.8,449,158.8z"/>
<g>
	<path class="st15" d="M229,461.8l0,15.5l13.1,7.7v9.1l-20.8-12.2v-24.6L229,461.8L229,461.8z M229,446.3v9l-7.7-4.5v-9l7.7-4.5
		l7.7,4.5L229,446.3L229,446.3z M247.7,441.8l7.7-4.5l7.7,4.5l-7.7,4.5L247.7,441.8L247.7,441.8z"/>
	<path class="st15" d="M234.6,474V465l7.7,4.5v9L234.6,474L234.6,474z M247.7,488.2l7.7,4.5l7.7-4.5v9l-7.7,4.5l-7.7-4.5V488.2
		L247.7,488.2z M274,441.8l7.7-4.5l7.7,4.5v9l-7.7,4.5v-9L274,441.8L274,441.8L274,441.8z M281.7,477.2l0-15.5l7.7-4.5v24.6
		L268.5,494V485L281.7,477.2L281.7,477.2L281.7,477.2z"/>
	<polygon class="st15" points="276.2,474 268.5,478.5 268.5,469.5 276.2,465 	"/>
	<path class="st15" d="M276.2,449.5l0,9.1l-13.2,7.7v15.5l-7.7,4.5l-7.7-4.5v-15.5l-13.2-7.7v-9.1l7.7-4.5l13.1,7.8l13.2-7.8
		L276.2,449.5L276.2,449.5L276.2,449.5z M234.6,434l20.8-12.3l20.8,12.3l-7.7,4.5l-13.2-7.8l-13.1,7.8L234.6,434L234.6,434z"/>
</g>
<g>
	<g>
		<path class="st26" d="M213,19.1v33.3L241.1,65L213,19.1z"/>
		<path class="st15" d="M213,19.1L184.8,65L213,52.4L213,19.1z"/>
		<path class="st26" d="M213,86.5v22.6l28.1-38.9L213,86.5z"/>
		<path class="st15" d="M213,109.1V86.5l-28.1-16.3L213,109.1z"/>
		<path class="st27" d="M213,81.3L241.1,65L213,52.4V81.3z"/>
		<path class="st26" d="M184.8,65L213,81.3V52.4L184.8,65z"/>
	</g>
</g>
</svg>
