<?xml version="1.0" encoding="UTF-8"?>
<svg id="Layer_1" data-name="Layer 1" xmlns="http://www.w3.org/2000/svg" viewBox="0 0 2496 2496">
  <defs>
    <style>
      .cls-1 {
        fill: #fff;
      }

      .cls-2 {
        fill: #ff0920;
        fill-rule: evenodd;
      }
    </style>
  </defs>
  <path class="cls-2" d="m1248,0c689.3,0,1248,558.7,1248,1248s-558.7,1248-1248,1248S0,1937.3,0,1248,558.7,0,1248,0h0Z"/>
  <path class="cls-1" d="m685.9,1248l.9,330,280.4,165v193.2l-444.5-260.7v-524l163.2,96.5h0Zm0-330v192.3l-163.3-96.6v-192.3l163.3-96.6,164.1,96.6-164.1,96.6h0Zm398.4-96.6l163.3-96.6,164.1,96.6-164.1,96.6-163.3-96.6h0Z"/>
  <path class="cls-1" d="m803.9,1509.6v-193.2l163.3,96.6v192.3l-163.3-95.7h0Zm280.4,302.6l163.3,96.6,164.1-96.6v192.3l-164.1,96.6-163.3-96.6v-192.3h0Zm561.6-990.8l163.3-96.6,164.1,96.6v192.3l-164.1,96.6v-192.3l-163.3-96.6h0Zm163.3,756.6l.9-330,163.3-96.6v524l-444.5,260.7v-193.2l280.3-164.9h0Z"/>
  <polygon class="cls-1" points="1692.1 1509.6 1528.8 1605.3 1528.8 1413 1692.1 1316.4 1692.1 1509.6"/>
  <path class="cls-1" d="m1692.1,986.4l.9,193.2-281.2,165v330.8l-163.3,95.7-163.3-95.7v-330.8l-281.2-165v-193.2l164-96.6,279.5,165.8,281.2-165.8,164.1,96.6h-.7Zm-888.2-329.9l443.7-261.6,444.5,261.6-163.3,96.6-281.2-165.8-280.4,165.8-163.3-96.6h0Z"/>
</svg>